{"title":"Jannat 2 2012 Hindi (Music Video) Bluray 720p x264 DTS{TG ENCODE","uid":11081592,"size":766074650,"categoryP":"video","categoryS":"music_videos","magnet":"?xt=urn:btih:eead29e6b51db84b2b2e9948cc544bce1b1ae890&amp;dn=Jannat+2+2012+Hindi+%28Music+Video%29+Bluray+720p+x264+DTS%7BTG+ENCODE&amp;tr=udp%3A%2F%2Ftracker.openbittorrent.com%3A80&amp;tr=udp%3A%2F%2Fopen.demonii.com%3A1337&amp;tr=udp%3A%2F%2Ftracker.coppersurfer.tk%3A6969&amp;tr=udp%3A%2F%2Fexodus.desync.com%3A6969","seeders":0,"leechers":1,"uploader":"nasifhasan","files":7,"time":1411414825,"description":"Jannat 2 2012 Hindi (Music Video) Bluray 720p x264 DTS[TG ENCODERS]\n\n[IMG]http://i.imgur.com/TUjvb4F.jpg[/IMG]\n\n[IMG]http://i.imgur.com/9EYQZkO.jpg[/IMG]\n\nMusic Video Tracklist:\n\n[IMG]http://i.imgur.com/NmnPc2X.jpg[/IMG]\n\nMedia Information:\n\nFormat : Matroska\nFormat version : Version 4 / Version 2\nOverall bit rate : 7 012 Kbps\nEncoded date : UTC 2014-01-31 07:07:17\nWriting application : mkvmerge v6.7.0 ('Back to the Ground') 32bit built on Jan 8 2014 15:03:17\nWriting library : libebml v1.3.0 + libmatroska v1.4.1\n\nVideo\nID : 1\nFormat : AVC\nFormat/Info : Advanced Video Codec\nFormat profile : &lt;a class=&quot;__cf_email__&quot; href=&quot;/cdn-cgi/l/email-protection&quot; data-cfemail=&quot;0b43626c634b4738253a&quot;&gt;[email&amp;#160;protected]&lt;/a&gt;&lt;script data-cfhash='f9e31' type=&quot;text/javascript&quot;&gt;\n/* &lt;![CDATA[ */!function(){try{var t=&quot;currentScript&quot;in document?document.currentScript:function(){for(var t=document.getElementsByTagName(&quot;script&quot;),e=t.length;e--;)if(t[e].getAttribute(&quot;data-cfhash&quot;))return t[e]}();if(t&amp;&amp;t.previousSibling){var e,r,n,i,c=t.previousSibling,a=c.getAttribute(&quot;data-cfemail&quot;);if(a){for(e=&quot;&quot;,r=parseInt(a.substr(0,2),16),n=2;a.length-n;n+=2)i=parseInt(a.substr(n,2),16)^r,e+=String.fromCharCode(i);e=document.createTextNode(e),c.parentNode.replaceChild(e,c)}t.parentNode.removeChild(t);}}catch(u){}}()/* ]]&gt; */&lt;/script&gt;\nFormat settings, CABAC : Yes\nFormat settings, ReFrames : 5 frames\nCodec ID : V_MPEG4/ISO/AVC\nDuration : 4mn 58s\nBit rate : 5 500 Kbps\nWidth : 1 280 pixels\nHeight : 544 pixels\nDisplay aspect ratio : 2.35:1\nFrame rate : 24.000 fps\nColor space : YUV\nChroma subsampling : 4:2:0\nBit depth : 8 bits\nScan type : Progressive\nBits/(Pixel*Frame) : 0.329\nStream size : 191 MiB (76%)\nWriting library : x264 core 120\nDefault : Yes\nForced : No\nColor primaries : BT.709-5, BT.1361, IEC 61966-2-4, SMPTE RP177\nTransfer characteristics : BT.709-5, BT.1361\nMatrix coefficients : BT.709-5, BT.1361, IEC 61966-2-4 709, SMPTE RP177\n\nAudio\nID : 2\nFormat : DTS\nFormat/Info : Digital Theater Systems\nCodec ID : A_DTS\nDuration : 4mn 58s\nBit rate mode : Constant\nBit rate : 1 510 Kbps\nChannel(s) : 6 channels\nChannel positions : Front: L C R, Side: L R, LFE\nSampling rate : 48.0 KHz\nBit depth : 24 bits\nCompression mode : Lossy\nStream size : 53.6 MiB (22%)\nLanguage : Hindi\nDefault : Yes\nForced : No\n\n\nScreenshot:\n\n[IMG]http://i.imgur.com/m6e9eY1.jpg[/IMG]\n\n[IMG]http://i.imgur.com/6noI5Ng.jpg[/IMG]\n\n[IMG]http://i.imgur.com/73nircy.jpg[/IMG]\n\n[IMG]http://i.imgur.com/fM4TqSs.jpg[/IMG]\n\n[IMG]http://i.imgur.com/cRWuKTm.jpg[/IMG]\n\n[IMG]http://i.imgur.com/NL1VNT7.jpg[/IMG]\n\n[IMG]http://i.imgur.com/wwB6SSP.jpg[/IMG]\n\n[IMG]http://i.imgur.com/UVd55W2.jpg[/IMG]\n\n[IMG]http://i.imgur.com/1DRbUEf.jpg[/IMG]\n\n[IMG]http://i.imgur.com/OV7hSsI.jpg[/IMG]\n\n[IMG]http://i.imgur.com/Wc8JroX.jpg[/IMG]\n\n[IMG]http://i.imgur.com/WWTapEs.jpg[/IMG]\n\n[IMG]http://i.imgur.com/Q3gKisd.jpg[/IMG]\n\n\n[color=green][b]Seedbox seeding 24x7 @ 1Gbps \n[/b][/color]\n\n[url=https://www.ultraseedbox.com/aff.php?aff=270] [img]http://i.imgur.com/A4if5TP.png[/img] [/url]\n\n[IMG]http://i.imgur.com/VkQzViC.png[/IMG][/url]\n\n[color=red][b]Note : Please try to seed as much as you can since &quot;sharing brings joy&quot; ! [/b][/color]\n","torrent":{"xt":"urn:btih:eead29e6b51db84b2b2e9948cc544bce1b1ae890","amp;dn":"Jannat+2+2012+Hindi+%28Music+Video%29+Bluray+720p+x264+DTS%7BTG+ENCODE","amp;tr":["udp%3A%2F%2Ftracker.openbittorrent.com%3A80","udp%3A%2F%2Fopen.demonii.com%3A1337","udp%3A%2F%2Ftracker.coppersurfer.tk%3A6969","udp%3A%2F%2Fexodus.desync.com%3A6969"],"infoHash":"eead29e6b51db84b2b2e9948cc544bce1b1ae890","infoHashBuffer":{"type":"Buffer","data":[238,173,41,230,181,29,184,75,43,46,153,72,204,84,75,206,27,26,232,144]},"announce":[],"urlList":[]}}